<svg xmlns="http://www.w3.org/2000/svg" width="26" height="24" viewBox="0 0 26 24" fill="none">
  <path d="M13 23.25L11.1875 21.625C9.08333 19.7292 7.34375 18.0938 5.96875 16.7188C4.59375 15.3438 3.5 14.1146 2.6875 13.0313C1.875 11.9271 1.30208 10.9167 0.96875 10C0.65625 9.08333 0.5 8.14583 0.5 7.1875C0.5 5.22917 1.15625 3.59375 2.46875 2.28125C3.78125 0.96875 5.41667 0.3125 7.375 0.3125C8.45833 0.3125 9.48958 0.541667 10.4688 1C11.4479 1.45833 12.2917 2.10417 13 2.9375C13.7083 2.10417 14.5521 1.45833 15.5313 1C16.5104 0.541667 17.5417 0.3125 18.625 0.3125C20.5833 0.3125 22.2188 0.96875 23.5313 2.28125C24.8438 3.59375 25.5 5.22917 25.5 7.1875C25.5 8.14583 25.3333 9.08333 25 10C24.6875 10.9167 24.125 11.9271 23.3125 13.0313C22.5 14.1146 21.4063 15.3438 20.0313 16.7188C18.6563 18.0938 16.9167 19.7292 14.8125 21.625L13 23.25Z" fill="#FF0000"/>
</svg>