<svg xmlns="http://www.w3.org/2000/svg" width="18" height="17" viewBox="0 0 18 17" fill="none">
<path d="M16.4851 16.654L10.2231 10.392C9.7231 10.818 9.14811 11.1477 8.49811 11.381C7.84811 11.6144 7.19477 11.731 6.53811 11.731C4.93677 11.731 3.58144 11.1767 2.47211 10.068C1.36277 8.95938 0.808105 7.60438 0.808105 6.00305C0.808105 4.40171 1.36211 3.04605 2.47011 1.93605C3.57811 0.826045 4.93277 0.270379 6.53411 0.269045C8.13544 0.267712 9.49144 0.822379 10.6021 1.93305C11.7128 3.04371 12.2681 4.39938 12.2681 6.00005C12.2681 6.69471 12.1451 7.36705 11.8991 8.01705C11.6531 8.66705 11.3298 9.22305 10.9291 9.68505L17.1911 15.946L16.4851 16.654ZM6.5391 10.73C7.86577 10.73 8.98577 10.2734 9.89911 9.36005C10.8124 8.44671 11.2691 7.32638 11.2691 5.99904C11.2691 4.67171 10.8124 3.55171 9.89911 2.63905C8.98577 1.72638 7.86577 1.26971 6.5391 1.26905C5.21244 1.26838 4.09211 1.72505 3.17811 2.63905C2.26411 3.55305 1.80744 4.67305 1.80811 5.99904C1.80877 7.32504 2.26544 8.44505 3.17811 9.35905C4.09077 10.273 5.21077 10.7297 6.53811 10.729" fill="#D9D9D9"/>
</svg>